PathFileType	4	(X/Y/Z)	..\data\2014007\dynamic\2014007_C5_04.trc
DataRate	CameraRate	NumFrames	NumMarkers	Units	OrigDataRate	OrigDataStartFrame	OrigNumFrames
100.000000	100.000000	4	52	mm	100.000000	58	157
Frame#	Time	L_IAS			L_IPS			R_IPS			R_IAS			L_FTC			L_FLE			L_FME			L_FAX			L_TTC			L_FAL			L_TAM			L_FCC			L_FM1			L_FM2			L_FM5			R_FTC			R_FLE			R_FME			R_FAX			R_TTC			R_FAL			R_TAM			R_FCC			R_FM1			R_FM2			R_FM5			CV7			TV10			SXS			SJN			L_SIA			L_SRS			L_SAA			L_SAE			L_HLE			L_HME			L_UOA			L_RSP			L_UHE			L_HM2			L_HM5			R_SIA			R_SRS			R_SAA			R_SAE			R_HLE			R_HME			R_UOA			R_RSP			R_UHE			R_HM2			R_HM5			
		X1	Y1	Z1	X2	Y2	Z2	X3	Y3	Z3	X4	Y4	Z4	X5	Y5	Z5	X6	Y6	Z6	X7	Y7	Z7	X8	Y8	Z8	X9	Y9	Z9	X10	Y10	Z10	X11	Y11	Z11	X12	Y12	Z12	X13	Y13	Z13	X14	Y14	Z14	X15	Y15	Z15	X16	Y16	Z16	X17	Y17	Z17	X18	Y18	Z18	X19	Y19	Z19	X20	Y20	Z20	X21	Y21	Z21	X22	Y22	Z22	X23	Y23	Z23	X24	Y24	Z24	X25	Y25	Z25	X26	Y26	Z26	X27	Y27	Z27	X28	Y28	Z28	X29	Y29	Z29	X30	Y30	Z30	X31	Y31	Z31	X32	Y32	Z32	X33	Y33	Z33	X34	Y34	Z34	X35	Y35	Z35	X36	Y36	Z36	X37	Y37	Z37	X38	Y38	Z38	X39	Y39	Z39	X40	Y40	Z40	X41	Y41	Z41	X42	Y42	Z42	X43	Y43	Z43	X44	Y44	Z44	X45	Y45	Z45	X46	Y46	Z46	X47	Y47	Z47	X48	Y48	Z48	X49	Y49	Z49	X50	Y50	Z50	X51	Y51	Z51	X52	Y52	Z52	

59	0.58	-465.5633850097657	881.9204101562502	129.1890106201172	-661.1397094726564	957.976257324219	228.6692810058593	-655.0422363281251	959.7102661132815	309.9347839355469	-463.202606201172	902.0885009765627	388.4645080566407	-534.9837036132814	859.8076171875002	70.36824798583979	-654.5775146484376	447.0429687500001	139.6032409667968	-660.3579101562501	440.7918090820314	264.524658203125	-700.5309448242189	395.3265991210939	140.8745880126953	-656.2700195312501	365.1624755859376	200.5194702148437	-878.5783691406252	99.52747344970706	191.1055908203124	-851.458679199219	113.9451370239258	270.2948913574218	-936.591491699219	85.35228729248048	242.3600616455078	-764.7886352539064	28.00925254821778	276.7421569824218	-753.7979125976564	40.35462188720704	223.521484375	-795.6545410156252	23.54252624511719	175.9744415283203	-519.2552490234376	844.063659667969	450.3359375000001	-341.3628234863282	473.7703247070314	359.5245361328125	-368.7028808593751	471.6231384277345	231.3115081787109	-341.281463623047	404.038055419922	359.4183654785156	-292.0274353027345	420.3819580078126	296.726806640625	-277.9805603027345	65.55293273925783	309.1259460449219	-271.6463317871094	92.43700408935548	223.7172393798828	-323.4658203125001	21.44891357421875	257.9223327636719	-140.7073059082032	47.93303680419923	232.3792114257813	-141.4303436279297	67.74812316894533	277.3137817382813	-173.2808685302735	51.45370101928712	322.1969604492188	-614.0672607421876	1401.90478515625	229.6483306884765	-661.3918457031251	1165.38037109375	250.4952087402343	-415.4242553710939	1148.908813476563	242.4164581298828	-488.2689819335939	1321.648071289063	231.1446533203125	-670.9629516601564	1177.856811523438	146.4070434570312	-652.9774780273439	1318.453735351563	146.3722839355468	-619.5803222656251	1318.835205078125	75.68341827392572	-567.9140625000001	1323.708129882813	50.33131408691401	-478.6672973632814	1016.947387695313	-23.10475730896002	-498.4117126464845	987.1997680664065	53.65807342529292	-500.0387573242189	980.2276611328127	2.39121651649469	-257.2089233398438	885.3047485351565	27.30519866943357	-286.3509216308594	859.2852783203127	-37.95756530761723	-174.7951965332032	846.3653564453127	18.85135269165037	-236.8694458007813	789.793151855469	-37.2194976806641	-680.6181640625001	1192.167602539063	339.11474609375	-655.6881103515626	1322.023071289063	329.8827819824219	-611.3450927734376	1348.458984375	395.4580078125001	-568.5187377929689	1354.317260742188	417.2795104980469	-606.8609619140627	1050.663696289063	530.3587036132812	-644.4820556640626	1034.116821289063	455.4213256835938	-647.7020263671877	1024.2509765625	507.5809936523438	-511.7094726562502	803.6818847656252	520.5380249023438	-554.4707031250002	814.381774902344	585.746337890625	-491.5134277343752	723.5546264648439	528.9044189453125	-558.8167114257815	739.2781372070314	600.416015625	
60	0.59	-450.8135070800782	880.9265136718752	129.615234375	-646.2366943359376	957.3892822265627	227.9096527099609	-640.3833618164064	959.5862426757815	309.4049987792969	-448.2439880371095	903.169860839844	388.5170898437501	-519.6177368164064	858.684020996094	70.44599151611324	-637.9825439453126	445.8871459960939	137.7258758544921	-643.1011352539064	439.1041259765626	262.4111328125	-685.5017700195314	395.2472229003907	138.8066864013671	-641.6524658203126	363.2491455078126	198.2258605957031	-873.5473632812502	105.8313293457032	189.1062622070312	-845.5258789062502	119.1000213623047	268.0256347656249	-931.2695922851565	95.4876174926758	240.4031066894531	-765.4714355468751	28.48679351806641	276.6857299804687	-754.2955322265626	39.93797683715821	223.5287322998047	-795.9587402343752	23.94157409667969	176.2130737304687	-504.1105957031252	845.3251953125002	450.5737915039063	-325.6744384765626	474.6306762695314	358.6539001464844	-353.7379455566407	473.0044555664064	230.8582000732422	-326.357147216797	404.7637023925782	358.650390625	-278.0086364746095	419.7818298339845	295.0846557617188	-276.072235107422	64.37389373779298	308.1392211914062	-269.3481750488282	90.18202209472658	222.3531646728516	-323.5435485839845	21.5482177734375	257.6903991699219	-139.4611968994141	41.25264739990235	230.103012084961	-138.9857177734376	61.31486129760744	275.3519287109376	-171.6060943603516	46.51129913330079	320.5161132812501	-600.4089355468751	1401.627807617188	230.9613800048828	-647.0266113281251	1165.050048828125	250.6853332519531	-400.8091735839845	1149.36962890625	242.8404541015625	-474.2801208496095	1321.828979492188	231.8563995361328	-656.8145751953126	1177.70703125	146.854751586914	-639.1552124023439	1318.370849609375	147.2074279785156	-605.8052978515626	1318.916015625	76.48443603515619	-554.2098999023439	1323.845947265625	51.08394622802729	-466.065643310547	1016.858276367188	-22.56287765502936	-485.8032226562501	987.1289672851565	54.23797607421871	-487.4131469726564	980.0959472656252	3.016856908798159	-244.8052673339844	884.7540283203127	27.1774044036865	-274.2682189941407	858.815124511719	-37.9952774047852	-162.4793853759766	845.7628173828127	18.27580833435057	-224.9473876953126	789.2475585937502	-37.46363449096683	-666.1654663085939	1191.346435546875	339.2865905761719	-641.6607055664064	1321.348266601563	330.5601196289062	-597.4175415039064	1347.728637695313	396.2537841796876	-554.6010742187501	1353.693237304688	418.0889587402344	-591.7066650390627	1049.59912109375	530.3760986328125	-629.2549438476564	1033.013427734375	455.4548339843751	-632.4208984375002	1023.154296875	507.4557800292969	-495.9105224609377	802.8606567382815	520.6691284179688	-538.9636230468752	813.4061279296877	585.7306518554688	-475.4321289062502	722.8522338867189	529.1781616210938	-542.9407958984377	738.3821411132814	600.4285278320312	
61	0.6	-435.9842529296876	880.399597167969	130.1482238769531	-631.3367309570314	957.1917724609377	227.1060028076172	-625.6923217773439	959.9174804687502	308.8620300292969	-433.2827148437502	904.6406250000002	388.5441894531251	-504.1736450195314	857.8494262695315	70.62008666992183	-619.9704589843751	444.667938232422	135.6027069091796	-624.1406250000001	437.1577758789064	259.9946899414062	-668.9830322265626	395.1650390625001	136.4887542724609	-625.5476074218751	361.2938537597657	195.5973052978515	-867.2121582031252	112.9074859619141	186.9304809570312	-838.2133789062502	124.8281860351563	265.5471801757812	-924.378112792969	106.6879577636719	238.3104705810546	-765.7216796875001	29.35974884033204	276.5034484863281	-754.4741821289064	39.66524124145509	223.4253540039062	-795.795837402344	24.8459587097168	176.427017211914	-488.8760681152345	847.1628417968752	450.9198303222657	-310.9589233398439	475.3785095214845	358.1754150390625	-339.6965332031251	474.2196044921876	230.7218322753907	-312.5137634277345	405.4494018554689	358.2841491699219	-264.8894348144532	419.1708068847657	293.9633178710938	-274.5384521484376	63.43178939819337	307.545654296875	-267.4399719238282	88.32371520996095	221.4686584472657	-323.8222045898439	21.8337574005127	257.7488098144531	-138.6164703369141	35.36605072021485	228.2240295410157	-136.8738555908204	55.57164001464845	273.9035339355469	-170.2717742919922	42.05376434326173	319.4112243652344	-586.7135009765626	1401.78271484375	232.3866577148437	-632.6360473632814	1165.133666992188	250.922866821289	-386.1499328613283	1150.25341796875	243.2425842285156	-460.2373046875002	1322.421142578125	232.5577239990234	-642.6607055664064	1178.009765625	147.3144989013671	-625.2980957031251	1318.73486328125	148.0679016113281	-592.0115356445314	1319.456298828125	77.30710601806635	-540.4870605468751	1324.41162109375	51.84064483642573	-453.974334716797	1016.995483398438	-21.97547149658209	-473.7977600097657	987.4018554687502	54.91565704345699	-475.3884887695314	980.2468872070315	3.747626066207828	-233.3451843261719	883.749694824219	26.96816253662107	-263.2610778808594	857.9886474609377	-38.10728454589848	-151.2829284667969	844.3382568359377	17.58638191223143	-214.3782196044922	788.188415527344	-37.80886459350589	-651.6310424804689	1190.974975585938	339.5560607910156	-627.5299682617189	1321.1103515625	331.3027954101562	-583.3525390625001	1347.420654296875	397.0923767089844	-540.5509033203126	1353.4736328125	418.9237976074219	-576.3791503906252	1048.89892578125	530.2932739257812	-613.7642211914064	1032.305541992188	455.3245849609376	-616.9448242187502	1022.425476074219	507.2139587402344	-479.8363647460939	802.436950683594	520.7069091796875	-523.2407226562502	812.8048095703127	585.5830688476562	-459.0142517089845	722.5530395507814	529.4086914062501	-526.8066406250002	737.8672485351564	600.327880859375	
62	0.61	-421.1188964843751	880.3850097656252	130.7578125	-616.4940185546876	957.3804321289065	226.2963714599609	-611.0181884765626	960.6892089843752	308.3265991210938	-418.3668518066408	906.4505615234377	388.5362243652344	-488.741180419922	857.3215942382815	70.88488769531246	-600.5620117187501	443.396697998047	133.2677001953124	-603.4597167968751	434.9615478515626	257.3139343261719	-650.9321289062501	395.0634765625001	133.9521484374999	-607.9152832031251	359.3340148925782	192.6817474365234	-859.385192871094	120.6789855957032	184.6088714599609	-829.3555297851565	131.0764312744141	262.9078063964843	-915.7435302734377	118.7688903808594	236.1088409423828	-765.1776733398439	30.72697830200196	276.1295471191406	-753.9945678710939	39.64317321777344	223.148696899414	-794.8360595703127	26.36880493164063	176.5701751708984	-473.6182556152345	849.5150146484377	451.3557739257813	-297.3627929687501	475.9692993164064	358.106689453125	-326.6391296386719	475.2374572753907	230.8967742919922	-299.9086303710939	406.0261535644532	358.3153381347656	-252.7767333984376	418.5251464843751	293.4251403808594	-273.233123779297	62.72594833374025	307.2948608398438	-265.7677612304688	86.90943145751955	221.0251922607422	-324.0870056152345	22.27197456359864	258.010498046875	-137.9879608154297	30.47234535217286	226.7677154541016	-134.9665222167969	50.70405960083009	272.9814453125001	-169.1370239257813	38.21229934692384	318.8871154785157	-572.9910888671876	1402.363037109375	233.8869323730469	-618.2509765625001	1165.62451171875	251.2153015136718	-371.4943237304689	1151.514770507813	243.6058197021484	-446.154266357422	1323.39794921875	233.2270050048828	-628.5334472656251	1178.7568359375	147.7869720458984	-611.4237060546876	1319.534790039063	148.9397888183593	-578.2179565429689	1320.439819335938	78.13592529296869	-526.7598266601564	1325.389404296875	52.587718963623	-442.3968200683595	1017.355895996094	-21.34863853454596	-462.3848266601564	988.0123291015627	55.69278335571285	-463.9795227050782	980.6860961914065	4.575252532958928	-222.8370361328126	882.3013305664065	26.68340682983396	-253.325180053711	856.819030761719	-38.29134368896488	-141.2149658203125	842.1052856445315	16.80733489990233	-205.1585540771485	786.635192871094	-38.24288940429691	-637.0359497070314	1191.070068359375	339.94677734375	-613.3015136718751	1321.3193359375	332.1098937988281	-569.1408691406251	1347.546142578125	397.9630737304688	-526.3497314453126	1353.662841796875	419.7642211914063	-560.8818969726565	1048.582641601563	530.1254272460938	-598.0338745117189	1032.011352539063	455.0508728027344	-601.2880859375002	1022.080749511719	506.8821105957032	-463.5031738281252	802.4270019531252	520.6307373046876	-507.2860107421877	812.5972900390627	585.3026733398438	-442.2909240722658	722.6656494140626	529.5560302734376	-510.4185485839845	737.7481689453126	600.1070556640625	
